<svg version="1.1" xmlns="http://www.w3.org/2000/svg" xmlns:xlink="http://www.w3.org/1999/xlink" width="29.36004" height="29.91501" viewBox="0,0,29.36004,29.91501"><g transform="translate(-160.64048,-149.661)"><g data-paper-data="{&quot;isPaintingLayer&quot;:true}" fill="none" fill-rule="nonzero" stroke="none" stroke-width="1" stroke-linecap="butt" stroke-linejoin="miter" stroke-miterlimit="10" stroke-dasharray="" stroke-dashoffset="0" font-family="none" font-weight="none" font-size="none" text-anchor="none" style="mix-blend-mode: normal"><path d="M188.31849,171.92791c1.6155,1.67299 1.56941,4.34854 -0.10358,5.96403c-0.79017,0.76356 -1.83121,1.18406 -2.92975,1.18406v0c-1.1546,0 -2.23129,-0.45709 -3.03333,-1.28765l-6.90102,-7.14525l-7.00508,7.04309c-0.79682,0.80157 -1.85972,1.24346 -2.99009,1.24346c-1.12229,0 -2.17854,-0.43618 -2.97394,-1.2273c-1.64876,-1.6402 -1.65588,-4.31528 -0.01568,-5.96403l7.12386,-7.1633l-7.01838,-7.26688c-1.6155,-1.67251 -1.56893,-4.34806 0.10358,-5.96356c0.79064,-0.76308 1.83074,-1.18359 2.92928,-1.18359c1.1546,0 2.23224,0.45709 3.03428,1.28765l6.90055,7.1443l7.00508,-7.04261c0.79729,-0.80205 1.85972,-1.24346 2.99057,-1.24346c1.12182,0 2.17807,0.43523 2.97299,1.22683c1.64923,1.63973 1.65636,4.31575 0.01663,5.96451l-7.12434,7.1633z" data-paper-data="{&quot;origPos&quot;:null}" fill="#be2026" stroke="#be2026"/><path d="M187.69225,172.53372c1.28432,1.32946 1.24773,3.44766 -0.08173,4.73293c-1.32946,1.28337 -3.44861,1.24678 -4.73293,-0.08268l-7.51776,-7.78384l-7.63084,7.67266c-1.30333,1.31045 -3.422,1.31615 -4.7334,0.01235c-1.30998,-1.30333 -1.31615,-3.422 -0.01235,-4.7334l7.7254,-7.76816l-7.61136,-7.8803c-1.28384,-1.32946 -1.24726,-3.44813 0.08268,-4.73293c1.32898,-1.28384 3.44813,-1.24678 4.73245,0.08268l7.51728,7.78337l7.63132,-7.67218c1.3038,-1.31045 3.42295,-1.31663 4.7334,-0.0133c1.31093,1.3038 1.31615,3.42295 0.01283,4.73388l-7.72635,7.76769z" data-paper-data="{&quot;origPos&quot;:null}" fill="#dd2726" stroke="#bc192d"/></g></g></svg>